<svg width="214" height="154" viewBox="0 0 214 154" fill="none" xmlns="http://www.w3.org/2000/svg">
<path d="M106.65 45.9587C99.6089 18.1866 60.2805 18.1866 53.2395 45.9587L25.8478 154H0L28.962 39.7647C42.404 -13.2548 117.485 -13.2549 130.927 39.7646L141.931 83.1667C153.878 76.8937 164.615 70.5169 172.964 63.4016C183.913 54.0708 189.152 44.8688 188.943 34.3955L213.989 33.8931C214.406 54.8319 203.206 70.6024 189.183 82.5533C177.455 92.548 162.649 100.834 148.269 108.165L159.889 154H134.042L125.316 119.584C114.19 125.14 104.247 130.374 96.2679 135.969C85.7318 143.358 81.8986 149.139 81.3016 154H56.1883C56.799 136.58 69.2906 124.227 81.9155 115.373C92.5234 107.934 105.893 101.149 119.001 94.6735L106.65 45.9587Z" fill="#2DD4BF"/>
</svg>
